<svg width="23px" height="18px" viewBox="0 0 23 18" version="1.1" xmlns="http://www.w3.org/2000/svg" xmlns:xlink="http://www.w3.org/1999/xlink">
    <!-- Generator: Sketch 48.2 (47327) - http://www.bohemiancoding.com/sketch -->
    <desc>Created with Sketch.</desc>
    <defs></defs>
    <g id="Welcome" stroke="none" stroke-width="1" fill="none" fill-rule="evenodd">
        <g id="Desktop_HD" transform="translate(-1381.000000, -123.000000)" fill="#627387">
            <g id="Header" transform="translate(-17.000000, -1.000000)">
                <g transform="translate(285.000000, 19.000000)" id="Cart">
                    <g transform="translate(1052.000000, 103.000000)">
                        <g id="Imported-Layers" transform="translate(61.700000, 2.000000)">
                            <path d="M20.402325,7.05242812 L18.0241875,7.05242812 L11.1785625,0.206803125 C10.902825,-0.068934375 10.4558625,-0.068934375 10.1802375,0.206803125 L3.3346125,7.05242812 L0.9563625,7.05242812 C0.428175,7.05242812 0,7.48060313 0,8.00879062 C0,8.53697813 0.428175,8.96515312 0.9563625,8.96515312 L1.66545,8.96515312 L3.6844875,17.8456781 L17.6742,17.8456781 L19.69335,8.96515312 L20.402325,8.96515312 C20.9305125,8.96515312 21.3586875,8.53697813 21.3586875,8.00879062 C21.3586875,7.48060313 20.9305125,7.05242812 20.402325,7.05242812 L20.402325,7.05242812 Z M10.6794,1.70417812 L16.02765,7.05242812 L5.33115,7.05242812 L10.6794,1.70417812 L10.6794,1.70417812 Z M11.6584875,8.92285312 L13.1877,8.92285312 L13.1877,16.0399406 L11.6584875,16.0399406 L11.6584875,8.92285312 Z M8.1709875,8.92285312 L9.7002,8.92285312 L9.7002,16.0399406 L8.1709875,16.0399406 L8.1709875,8.92285312 Z M3.403575,8.92285312 L6.2127,8.92285312 L6.2127,16.0399406 L5.1298875,16.0399406 L3.403575,8.92285312 L3.403575,8.92285312 Z M16.2289125,16.0399406 L15.1459875,16.0399406 L15.1459875,8.92285312 L17.9551125,8.92285312 L16.2289125,16.0399406 L16.2289125,16.0399406 Z"></path>
                        </g>
                    </g>
                </g>
            </g>
        </g>
    </g>
</svg>
