<?xml version="1.0" encoding="UTF-8"?>
<svg width="17px" height="17px" viewBox="0 0 17 17" version="1.1" xmlns="http://www.w3.org/2000/svg" xmlns:xlink="http://www.w3.org/1999/xlink">
    <!-- Generator: Sketch 48.2 (47327) - http://www.bohemiancoding.com/sketch -->
    <title>Fill 2</title>
    <desc>Created with Sketch.</desc>
    <defs></defs>
    <g id="Desktop_HD" stroke="none" stroke-width="1" fill="none" fill-rule="evenodd" transform="translate(-539.000000, -2028.000000)">
        <g id="Footer" transform="translate(0.000000, 1934.000000)" fill="#627387">
            <g id="Content" transform="translate(267.000000, 52.000000)">
                <g id="SOCIAL-MEDIA">
                    <g id="Twitte" transform="translate(101.000000, 33.000000)">
                        <path d="M178.951321,10.4710253 C179.046991,10.5674666 179.23833,10.6631364 179.430441,10.8544759 C179.621781,11.0458155 179.717451,11.2379266 179.90879,11.4292662 C180.005232,11.6206057 180.196571,11.9083866 180.292241,12.1961675 C180.387911,12.4831769 180.387911,12.8666275 180.387911,13.2493067 C180.387911,14.016208 180.196571,14.5909983 179.90879,15.0701187 C179.717451,15.2614583 179.621781,15.4527979 179.430441,15.644909 C179.23833,15.8362485 179.046991,16.0275881 178.85488,16.2196992 C178.75921,16.315369 178.56787,16.5067085 178.4722,16.6988196 C178.376531,16.8901592 178.280089,17.0814988 178.280089,17.2736099 C178.280089,17.4649495 178.376531,17.656289 178.4722,17.8484001 C178.56787,17.9440699 178.66354,18.1354095 178.75921,18.2310793 L179.430441,18.8058695 C179.90879,19.1893202 180.292241,19.5727708 180.580022,19.95545 C180.867031,20.4345704 181.058371,21.0093607 181.058371,21.6805922 C181.058371,22.7337314 180.580022,23.5963025 179.717451,24.3632039 C178.75921,25.1301052 177.41829,25.6092257 175.788817,25.6092257 C174.351456,25.6092257 173.201104,25.3214448 172.530644,24.6509848 C171.764514,24.0761945 171.476733,23.4057345 171.476733,22.6388331 C171.476733,22.2553825 171.572403,21.7770336 171.860184,21.2979131 C172.051523,20.8187926 172.530644,20.435342 173.105434,20.0526628 C173.775894,19.6692122 174.542795,19.3814313 175.213255,19.2857615 C175.979385,19.1900917 176.554176,19.0944219 177.033296,19.0944219 C176.841956,18.9023108 176.746287,18.7109713 176.649845,18.4239619 C176.554176,18.2318508 176.458506,17.9448414 176.458506,17.6570606 C176.458506,17.465721 176.458506,17.2743814 176.554176,17.1779401 C176.554176,17.0822703 176.649845,16.8909307 176.649845,16.795261 L175.979385,16.795261 C174.829805,16.795261 173.968005,16.4118103 173.392443,15.7413503 C172.816882,15.0708902 172.434203,14.3996587 172.434203,13.5378591 C172.434203,12.4839484 172.913323,11.5257075 173.775123,10.7588061 C174.349913,10.2796857 175.020373,9.9919048 175.595163,9.80056523 C176.266395,9.70489545 176.841185,9.60922566 177.415975,9.60922566 L181.535948,9.60922566 L180.195028,10.3753555 L178.951321,10.4710253 M179.81312,22.5439349 C179.81312,21.9691447 179.621781,21.585694 179.334,21.1073451 C178.951321,20.7238944 178.376531,20.2447739 177.609629,19.7656535 L177.130509,19.7656535 L176.268709,19.7656535 C175.789589,19.8613233 175.406138,19.956993 174.927018,20.0534344 C174.831348,20.0534344 174.640008,20.1491041 174.447897,20.2447739 C174.256558,20.3404437 174.065218,20.4361135 173.873107,20.6282246 C173.681767,20.8195642 173.490428,21.0109037 173.394758,21.2986846 C173.202647,21.585694 173.202647,21.8734749 173.202647,22.2569255 C173.202647,23.0230553 173.490428,23.5978456 174.160888,24.076966 C174.831348,24.5560865 175.693919,24.8430959 176.748601,24.8430959 C177.706071,24.8430959 178.472972,24.6517563 179.047762,24.1726358 C179.526111,23.6942869 179.81312,23.2151664 179.81312,22.5439349 M176.843499,16.4118103 C176.460049,16.4118103 176.076598,16.3161405 175.597478,16.0275881 C175.214799,15.7405787 174.927018,15.4527979 174.735678,15.0701187 C174.256558,14.2075476 174.065218,13.4414178 174.065218,12.6745164 C174.065218,12.0997262 174.256558,11.6206057 174.544339,11.1422568 C174.927018,10.7588061 175.406138,10.4710253 175.980928,10.4710253 C176.460049,10.4710253 176.843499,10.6631364 177.130509,10.8544759 C177.41829,11.0458155 177.705299,11.4292662 177.89741,11.8127168 C178.376531,12.675288 178.56787,13.4421893 178.56787,14.3039889 L178.56787,14.9752205 C178.4722,15.2622298 178.376531,15.5500107 178.18442,15.8370201 C177.89741,16.2204707 177.41829,16.4118103 176.843499,16.4118103 Z M187.191267,12.0040564 L187.191267,13.1544084 L184.988547,13.1544084 L184.988547,15.2614583 L183.934637,15.2614583 L183.934637,13.0579671 L181.731145,13.0579671 L181.731145,12.0040564 L183.934637,12.0040564 L183.934637,9.80056523 L184.988547,9.80056523 L184.988547,12.0040564 L187.191267,12.0040564 Z" id="Fill-2"></path>
                    </g>
                </g>
            </g>
        </g>
    </g>
</svg>