<?xml version="1.0" encoding="UTF-8"?>
<svg width="9px" height="17px" viewBox="0 0 9 17" version="1.1" xmlns="http://www.w3.org/2000/svg" xmlns:xlink="http://www.w3.org/1999/xlink">
    <!-- Generator: Sketch 48.2 (47327) - http://www.bohemiancoding.com/sketch -->
    <title>Fill 4</title>
    <desc>Created with Sketch.</desc>
    <defs></defs>
    <g id="Desktop_HD" stroke="none" stroke-width="1" fill="none" fill-rule="evenodd" transform="translate(-310.000000, -2029.000000)">
        <g id="Footer" transform="translate(0.000000, 1934.000000)" fill="#627387">
            <g id="Content" transform="translate(267.000000, 52.000000)">
                <g id="SOCIAL-MEDIA">
                    <g id="Facebook" transform="translate(0.000000, 33.000000)">
                        <path d="M43.649845,15.8846964 L45.2750603,15.8846964 L45.2750603,14.2581032 C45.2750603,13.5739834 45.2750603,12.4620302 45.7883224,11.7765325 C46.3022735,11.0924126 47.0718223,10.5791504 48.356011,10.5791504 C50.4944885,10.5791504 51.350155,10.9208659 51.350155,10.9208659 L50.9223217,13.4031256 C50.9223217,13.4031256 50.2388908,13.231579 49.554082,13.231579 C48.8692732,13.231579 48.3567,13.4885545 48.3567,14.0872455 L48.3567,15.9694364 L51.0091285,15.9694364 L50.9230107,18.2794605 L48.4414399,18.2794605 L48.4414399,26.5791504 L45.3611781,26.5791504 L45.3611781,18.2794605 L43.7359628,18.2794605 L43.649845,15.8846964" id="Fill-4"></path>
                    </g>
                </g>
            </g>
        </g>
    </g>
</svg>