<?xml version="1.0" encoding="UTF-8"?>
<svg width="22px" height="18px" viewBox="0 0 22 18" version="1.1" xmlns="http://www.w3.org/2000/svg" xmlns:xlink="http://www.w3.org/1999/xlink">
    <!-- Generator: Sketch 48.2 (47327) - http://www.bohemiancoding.com/sketch -->
    <title>Cart Icon@3x</title>
    <desc>Created with Sketch.</desc>
    <defs></defs>
    <g id="sprite" stroke="none" stroke-width="1" fill="none" fill-rule="evenodd" transform="translate(-196.000000, -24.000000)">
        <path d="M216.402325,31.0524281 L214.024187,31.0524281 L207.178562,24.2068031 C206.902825,23.9310656 206.455862,23.9310656 206.180238,24.2068031 L199.334612,31.0524281 L196.956363,31.0524281 C196.428175,31.0524281 196,31.4806031 196,32.0087906 C196,32.5369781 196.428175,32.9651531 196.956363,32.9651531 L197.66545,32.9651531 L199.684487,41.8456781 L213.6742,41.8456781 L215.69335,32.9651531 L216.402325,32.9651531 C216.930512,32.9651531 217.358688,32.5369781 217.358688,32.0087906 C217.358688,31.4806031 216.930512,31.0524281 216.402325,31.0524281 L216.402325,31.0524281 Z M206.6794,25.7041781 L212.02765,31.0524281 L201.33115,31.0524281 L206.6794,25.7041781 L206.6794,25.7041781 Z M207.658488,32.9228531 L209.1877,32.9228531 L209.1877,40.0399406 L207.658488,40.0399406 L207.658488,32.9228531 Z M204.170987,32.9228531 L205.7002,32.9228531 L205.7002,40.0399406 L204.170987,40.0399406 L204.170987,32.9228531 Z M199.403575,32.9228531 L202.2127,32.9228531 L202.2127,40.0399406 L201.129887,40.0399406 L199.403575,32.9228531 L199.403575,32.9228531 Z M212.228913,40.0399406 L211.145987,40.0399406 L211.145987,32.9228531 L213.955112,32.9228531 L212.228913,40.0399406 L212.228913,40.0399406 Z" id="Cart-Icon" fill="#627387"></path>
    </g>
</svg>