<?xml version="1.0" encoding="UTF-8"?>
<svg width="128px" height="80px" viewBox="0 0 128 80" version="1.1" xmlns="http://www.w3.org/2000/svg" xmlns:xlink="http://www.w3.org/1999/xlink">
    <!-- Generator: Sketch 48.2 (47327) - http://www.bohemiancoding.com/sketch -->
    <title>Logo@3x</title>
    <desc>Created with Sketch.</desc>
    <defs></defs>
    <g id="sprite" stroke="none" stroke-width="1" fill="none" fill-rule="evenodd" transform="translate(-31.000000, -26.000000)">
        <g id="Logo" transform="translate(31.000000, 25.000000)">
            <g id="Logo-" transform="translate(0.383758, 0.868373)">
                <path d="M52.9386097,8.43828039 C53.1323093,7.77556623 58.4593217,3.79168879 62.4559374,1.74389118 C66.5344821,-0.346207328 71.1507198,3.36596815 71.9738077,7.22131592 L71.5657905,10.2127491 L67.8051954,12.223669 L64.3587519,14.8484943 L65.0391423,17.7157363 L61.1429032,19.7141829 L52.9386097,8.43828039" id="Fill-1" fill="#C2EBF2"></path>
                <path d="M83.5192851,28.0715306 C68.0178852,12.5888575 43.6931125,32.43232 55.4680995,47.6329871 L58.8977232,44.898071 C58.8977232,44.898071 59.6274881,37.3489866 65.5724947,33.1546893 C71.5175012,28.9598496 79.7348166,29.5466391 79.7348166,29.5466391 L83.5192851,28.0715306" id="Fill-2" fill="#C2EBF2"></path>
                <path d="M2.97006169,77.676933 L10.1130763,77.676933 C10.6914625,77.676933 11.1597057,78.1449545 11.1597057,78.7225246 C11.1597057,79.3006369 10.6914625,79.7686585 10.1130763,79.7686585 L0.407474668,79.7686585 L0.407474668,62.6584851 C0.407474668,61.9513008 0.980977629,61.377527 1.68849689,61.377527 C2.39601616,61.377527 2.97006169,61.9513008 2.97006169,62.6584851 L2.97006169,77.676933" id="Fill-3" fill="#72808C"></path>
                <path d="M20.2342913,79.7686585 L20.2342913,79.7686585 C19.5267721,79.7686585 18.9532691,79.195427 18.9532691,78.4882426 L18.9532691,62.6584851 C18.9532691,61.9513008 19.5267721,61.377527 20.2342913,61.377527 C20.9423532,61.377527 21.5158561,61.9513008 21.5158561,62.6584851 L21.5158561,78.4882426 C21.5158561,79.195427 20.9423532,79.7686585 20.2342913,79.7686585" id="Fill-4" fill="#72808C"></path>
                <path d="M33.6418899,77.676933 L40.7854471,77.676933 C41.3632907,77.676933 41.8320764,78.1449545 41.8320764,78.7225246 C41.8320764,79.3006369 41.3632907,79.7686585 40.7854471,79.7686585 L31.0798454,79.7686585 L31.0798454,62.6584851 C31.0798454,61.9513008 31.6533484,61.377527 32.3608677,61.377527 C33.0683869,61.377527 33.6418899,61.9513008 33.6418899,62.6584851 L33.6418899,77.676933" id="Fill-5" fill="#72808C"></path>
                <path d="M57.2130243,72.8898807 L57.2130243,78.4947505 C57.2130243,79.1981386 56.6416917,79.7686585 55.9379705,79.7686585 C55.2337067,79.7686585 54.6629166,79.1981386 54.6629166,78.4947505 L54.6629166,61.377527 L60.2509081,61.377527 C61.4483736,61.377527 62.4901197,61.5125645 63.3750614,61.7820972 C64.260003,62.0516299 64.9930234,62.4345073 65.574665,62.9307294 C66.155764,63.4269515 66.5892823,64.0262144 66.8757625,64.7274332 C67.1611575,65.4291943 67.3049402,66.2117611 67.3049402,67.076218 C67.3049402,67.9319978 67.1508486,68.7145645 66.8426654,69.4250028 C66.5339395,70.1348987 66.0825162,70.7466349 65.4883954,71.2596689 C64.8942745,71.7732453 64.156371,72.1734769 63.2757699,72.4598215 C62.3951689,72.7467084 61.3870625,72.8898807 60.2509081,72.8898807 L57.2130243,72.8898807 L57.2130243,72.8898807 Z M57.2130243,70.9131269 L60.2509081,70.9131269 C60.9817581,70.9131269 61.6268811,70.8193057 62.1862771,70.6311209 C62.7451305,70.4429361 63.2139163,70.1799112 63.5926344,69.841504 C63.9713525,69.5036391 64.2578327,69.0996112 64.4515324,68.6288781 C64.6452321,68.1586873 64.7423532,67.6407724 64.7423532,67.076218 C64.7423532,65.904266 64.370146,64.9888311 63.6257315,64.3299132 C62.8813171,63.6709952 61.7570994,63.3412651 60.2509081,63.3412651 L57.2130243,63.3412651 L57.2130243,70.9131269 L57.2130243,70.9131269 Z" id="Fill-6" fill="#72808C"></path>
                <path d="M86.6966108,62.3531594 L86.6966108,62.4301687 C86.6966108,62.9692341 86.2592945,63.4058011 85.7205164,63.4058011 L77.6079182,63.4058011 L77.6079182,69.5144855 L83.9896985,69.5144855 C84.5290192,69.5144855 84.965793,69.9510525 84.965793,70.4901179 C84.965793,71.0286409 84.5290192,71.4652079 83.9896985,71.4652079 L77.6079182,71.4652079 L77.6079182,77.7409267 L85.7205164,77.7409267 C86.2592945,77.7409267 86.6966108,78.1774937 86.6966108,78.716559 L86.6966108,78.7930261 C86.6966108,79.3320914 86.2592945,79.7686585 85.7205164,79.7686585 L75.0323094,79.7686585 L75.0323094,61.377527 L85.7205164,61.377527 C86.2592945,61.377527 86.6966108,61.8146363 86.6966108,62.3531594" id="Fill-7" fill="#72808C"></path>
                <path d="M106.536992,62.3531594 L106.536992,62.4301687 C106.536992,62.9692341 106.100218,63.4058011 105.56144,63.4058011 L97.4488418,63.4058011 L97.4488418,69.5144855 L103.830622,69.5144855 C104.3694,69.5144855 104.806717,69.9510525 104.806717,70.4901179 C104.806717,71.0286409 104.3694,71.4652079 103.830622,71.4652079 L97.4488418,71.4652079 L97.4488418,77.7409267 L105.56144,77.7409267 C106.100218,77.7409267 106.536992,78.1774937 106.536992,78.716559 L106.536992,78.7930261 C106.536992,79.3320914 106.100218,79.7686585 105.56144,79.7686585 L94.873233,79.7686585 L94.873233,61.377527 L105.56144,61.377527 C106.100218,61.377527 106.536992,61.8146363 106.536992,62.3531594" id="Fill-8" fill="#72808C"></path>
                <path d="M117.526871,72.8898807 L117.526871,78.4947505 C117.526871,79.1981386 116.956624,79.7686585 116.25236,79.7686585 C115.548096,79.7686585 114.977306,79.1981386 114.977306,78.4947505 L114.977306,61.377527 L120.565298,61.377527 C121.762763,61.377527 122.804509,61.5125645 123.688908,61.7820972 C124.574392,62.0516299 125.307413,62.4345073 125.889054,62.9307294 C126.470153,63.4269515 126.903672,64.0262144 127.190152,64.7274332 C127.475547,65.4291943 127.61933,66.2117611 127.61933,67.076218 C127.61933,67.9319978 127.465238,68.7145645 127.157055,69.4250028 C126.848329,70.1348987 126.396906,70.7466349 125.802785,71.2596689 C125.208664,71.7732453 124.47076,72.1734769 123.590159,72.4598215 C122.709558,72.7467084 121.701452,72.8898807 120.565298,72.8898807 L117.526871,72.8898807 L117.526871,72.8898807 Z M117.526871,70.9131269 L120.565298,70.9131269 C121.296148,70.9131269 121.941271,70.8193057 122.500667,70.6311209 C123.05952,70.4429361 123.528306,70.1799112 123.907024,69.841504 C124.286285,69.5036391 124.572222,69.0996112 124.765922,68.6288781 C124.959622,68.1586873 125.056743,67.6407724 125.056743,67.076218 C125.056743,65.904266 124.684535,64.9888311 123.940121,64.3299132 C123.195707,63.6709952 122.071489,63.3412651 120.565298,63.3412651 L117.526871,63.3412651 L117.526871,70.9131269 L117.526871,70.9131269 Z" id="Fill-9" fill="#72808C"></path>
                <path d="M77.8558755,48.5072058 C65.542653,57.5671917 48.2534648,55.164175 38.8549613,43.2510473 C38.5342988,42.8443079 38.6080891,42.2531798 39.0253302,41.9462271 C39.4181553,41.657171 39.9715829,41.7265878 40.2732552,42.1089229 C49.0646161,53.2682268 65.2502044,55.522648 76.7766916,47.0413168 C88.3026361,38.5605279 90.9574611,22.4433411 82.9088869,10.7379218 C82.6327157,10.3360632 82.7314645,9.78723607 83.1242896,9.49817989 C83.5415307,9.19122718 84.1275129,9.29643712 84.4210466,9.7232424 C93.009484,22.2323789 90.1696406,39.4466776 77.8558755,48.5072058" id="Fill-10" fill="#72808C"></path>
                <path d="M84.702101,27.2005659 L80.1705052,30.5352871 L80.1135347,30.5260677 C75.5624062,29.8194257 70.8626119,30.8021082 67.1134108,33.4757423 C63.2594927,36.2242164 60.7484504,40.329031 60.0550381,45.0027386 L59.9991527,45.3769389 L55.467557,48.7116602 C55.043805,49.0234938 54.444801,48.9123183 54.1610337,48.4697858 C48.7531775,40.0280438 50.8480639,28.7570222 58.9302778,22.8104913 C67.0119491,16.8639604 78.4017071,18.2127084 84.8594481,25.8816454 C85.1980156,26.2840463 85.1258529,26.8887323 84.702101,27.2005659 L84.702101,27.2005659 Z M79.6973788,28.6230693 L82.8182767,26.3268895 C76.886292,20.0376128 67.0580681,19.090181 60.0100043,24.2763803 C52.9619404,29.4620373 50.9468127,39.1239976 55.1924709,46.6541008 L58.3133687,44.3573787 C59.1407973,39.443966 61.7956223,35.1260199 65.8199094,32.1649566 C69.8436539,29.2038933 74.7577658,27.953305 79.6973788,28.6230693 L79.6973788,28.6230693 Z" id="Fill-11" fill="#72808C"></path>
                <path d="M52.1041276,34.0771744 C49.3907044,34.2225159 47.3023289,36.5468964 47.4482819,39.2584928 L49.2664545,39.1608753 C49.1747591,37.4514849 50.4915913,35.9861382 52.2012487,35.8944863 L52.1041276,34.0771744" id="Fill-12" fill="#72808C"></path>
                <path d="M49.2599436,39.1353863 C49.2333573,38.6348256 48.8058073,38.2508636 48.3050096,38.2774372 C47.8042118,38.3045532 47.4200679,38.7319008 47.4466541,39.2324615 C47.473783,39.7330221 47.9013329,40.1169842 48.4021307,40.0904106 C48.9029285,40.0632946 49.2870724,39.635947 49.2599436,39.1353863" id="Fill-13" fill="#72808C"></path>
                <path d="M52.8398608,35.1439164 C51.2213562,32.9627082 48.1297575,32.5044484 45.9475163,34.1216445 L47.032126,35.5837373 C48.4075565,34.5641771 50.3570325,34.8532333 51.3770756,36.2280126 L52.8398608,35.1439164" id="Fill-14" fill="#72808C"></path>
                <path d="M47.050031,35.5642138 C47.4531651,35.2659382 47.5372644,34.6975876 47.2388475,34.2946444 C46.9398881,33.8922435 46.3712683,33.8076417 45.9686768,34.1064596 C45.5655427,34.4052775 45.4814434,34.9736281 45.7798603,35.376029 C46.0788197,35.7784299 46.6474395,35.8630318 47.050031,35.5642138" id="Fill-15" fill="#72808C"></path>
                <path d="M49.2290167,6.69438921 L49.2290167,6.69438921 C48.8182866,6.99646105 48.7303893,7.57403108 49.0331467,7.9851091 L59.4717687,22.7714443 C59.7539083,23.154864 60.2872607,23.3007479 60.6974482,23.0583312 C61.1684043,22.7790368 61.2856007,22.1635044 60.9687363,21.7339875 L52.7383991,9.94613562 C52.716696,9.90708863 51.3515745,8.02957928 50.5219756,6.89287807 C50.2203033,6.47963077 49.640832,6.39123273 49.2290167,6.69438921" id="Fill-16" fill="#72808C"></path>
                <path d="M70.1572629,2.13565333 C67.3195898,-0.353049852 63.1032307,-0.477783287 59.9665982,1.62261929 L52.8035082,6.39936752 C52.3857246,6.67866195 52.2739539,7.24430096 52.5533806,7.66134449 C52.8333499,8.07893033 53.3992568,8.19119043 53.8164978,7.91135368 L61.0137701,3.11237036 C63.3951367,1.51795167 66.5876546,1.54886387 68.80028,3.37051433 C71.5245547,5.6140892 71.8132052,9.4645561 69.9103908,12.0796197 C69.687392,12.3865724 69.6298789,12.798735 69.8295469,13.1208727 C70.1876472,13.7000697 70.5701633,13.6214334 70.9423705,13.1165341 C71.0291827,12.9999355 71.4643288,12.9527537 71.5516835,12.8372397 C73.672071,10.0247719 73.3660581,4.94974808 70.1572629,2.13565333" id="Fill-17" fill="#72808C"></path>
                <path d="M50.9337909,9.91793502 L47.8752893,12.16856 C47.5513713,12.4066382 47.0956074,12.3377637 46.8568739,12.013999 C46.618683,11.6902344 46.6875902,11.2341439 47.0115081,10.9960657 L50.0705523,8.74544073 C50.3944702,8.50736257 50.8502342,8.57623712 51.0889677,8.90000173 C51.3271586,9.22376634 51.2577088,9.67985685 50.9337909,9.91793502" id="Fill-18" fill="#72808C"></path>
                <path d="M54.6043184,14.9013069 L51.5458168,17.1519319 C51.2218988,17.3905524 50.7655923,17.3211355 50.5274014,16.9973709 C50.2886679,16.6736063 50.3581176,16.2180581 50.6820356,15.9794376 L53.7405372,13.7288126 C54.0644551,13.4907344 54.5207616,13.5601513 54.7589525,13.8839159 C54.997686,14.2076805 54.9282363,14.6632287 54.6043184,14.9013069" id="Fill-19" fill="#72808C"></path>
                <path d="M52.6613533,12.2634659 L49.6028517,14.5135486 C49.2783911,14.7521691 48.8226272,14.6827522 48.5844363,14.3589876 C48.3457028,14.035223 48.4151525,13.5796748 48.7390705,13.3410543 L51.7975721,11.0904293 C52.12149,10.8523511 52.5777965,10.9212257 52.8159875,11.2455326 C53.0547209,11.5692972 52.9852712,12.0248454 52.6613533,12.2634659" id="Fill-20" fill="#72808C"></path>
                <path d="M60.8493695,38.8875464 C60.7375988,38.9699789 60.6019548,39.0209569 60.4532889,39.0280071 L52.075371,39.4336619 C51.6738647,39.4531854 51.3320418,39.1429788 51.312509,38.7416625 C51.2929763,38.3403462 51.6022447,37.9986851 52.0048362,37.9791616 L60.3827541,37.5740491 C60.7842604,37.5545256 61.1260833,37.8641899 61.1456161,38.2660485 C61.1575528,38.5187693 61.0392712,38.7481703 60.8493695,38.8875464" id="Fill-21" fill="#72808C"></path>
                <path d="M74.6535912,29.8525072 C74.5179472,29.9517516 74.3475783,30.0054412 74.1663579,29.9918832 C73.7653941,29.960971 73.4653495,29.6111751 73.4957338,29.2104011 L74.1424845,20.7453395 C74.1734113,20.3445655 74.5233729,20.0441206 74.9243367,20.0750328 C75.3253005,20.105945 75.6258876,20.4551987 75.5955034,20.8565149 L74.9482101,29.3215766 C74.9313902,29.5412159 74.8185344,29.7310276 74.6535912,29.8525072" id="Fill-22" fill="#72808C"></path>
                <path d="M64.2323316,21.2811509 C63.3262295,20.1683118 62.9637887,19.0825886 63.1564032,18.0527242 C63.5041945,16.1887729 65.5431956,15.0244134 67.342378,13.9983453 C68.400944,13.3936593 69.9017095,12.2829894 70.150752,11.7244005 L71.9797761,12.195676 C71.5137032,13.2412676 69.5484925,14.6117084 68.1491887,15.4105447 C66.6571043,16.261986 64.9658946,17.2278566 64.7564602,18.3509998 C64.655541,18.8889806 64.9045835,19.5294596 65.4943637,20.2539982 L64.2323316,21.2811509" id="Fill-23" fill="#72808C"></path>
                <path d="M57.9601517,11.1761157 C57.5857741,11.1761157 57.2819315,10.872417 57.2819315,10.4982166 C57.2819315,8.82733094 58.6421699,7.4677365 60.3138469,7.4677365 C60.9209896,7.4677365 61.5080569,7.64670187 62.0099398,7.98565142 C62.3202934,8.19498666 62.4016798,8.61691106 62.1922454,8.92711769 C61.9822685,9.236782 61.5606868,9.31812989 61.2503333,9.10933697 C60.9736195,8.92223682 60.6497015,8.82353471 60.3138469,8.82353471 C59.3898397,8.82353471 58.6383718,9.57410459 58.6383718,10.4982166 C58.6383718,10.872417 58.3350718,11.1761157 57.9601517,11.1761157" id="Fill-24" fill="#72808C"></path>
            </g>
        </g>
    </g>
</svg>