<?xml version="1.0" encoding="UTF-8"?>
<svg width="8px" height="16px" viewBox="0 0 8 16" version="1.1" xmlns="http://www.w3.org/2000/svg" xmlns:xlink="http://www.w3.org/1999/xlink">
    <!-- Generator: Sketch 48.2 (47327) - http://www.bohemiancoding.com/sketch -->
    <title>Fill 4 Copy@3x</title>
    <desc>Created with Sketch.</desc>
    <defs></defs>
    <g id="sprite" stroke="none" stroke-width="1" fill="none" fill-rule="evenodd" transform="translate(-228.000000, -25.000000)">
        <path d="M228,30.305546 L229.625215,30.305546 L229.625215,28.6789528 C229.625215,27.9948329 229.625215,26.8828798 230.138477,26.197382 C230.652429,25.5132621 231.421977,25 232.706166,25 C234.844643,25 235.70031,25.3417155 235.70031,25.3417155 L235.272477,27.8239752 C235.272477,27.8239752 234.589046,27.6524285 233.904237,27.6524285 C233.219428,27.6524285 232.706855,27.9094041 232.706855,28.5080951 L232.706855,30.3902859 L235.359283,30.3902859 L235.273166,32.70031 L232.791595,32.70031 L232.791595,41 L229.711333,41 L229.711333,32.70031 L228.086118,32.70031 L228,30.305546" id="Fill-4-Copy" fill="#627387"></path>
    </g>
</svg>