<?xml version="1.0" encoding="UTF-8"?>
<svg width="16px" height="16px" viewBox="0 0 16 16" version="1.1" xmlns="http://www.w3.org/2000/svg" xmlns:xlink="http://www.w3.org/1999/xlink">
    <!-- Generator: Sketch 48.2 (47327) - http://www.bohemiancoding.com/sketch -->
    <title>Fill 2 Copy@3x</title>
    <desc>Created with Sketch.</desc>
    <defs></defs>
    <g id="sprite" stroke="none" stroke-width="1" fill="none" fill-rule="evenodd" transform="translate(-273.000000, -27.000000)">
        <path d="M280.474588,27.8617996 C280.570257,27.9582409 280.761597,28.0539107 280.953708,28.2452503 C281.145048,28.4365898 281.240718,28.6287009 281.432057,28.8200405 C281.528498,29.0113801 281.719838,29.299161 281.815508,29.5869418 C281.911178,29.8739512 281.911178,30.2574019 281.911178,30.640081 C281.911178,31.4069824 281.719838,31.9817726 281.432057,32.460893 C281.240718,32.6522326 281.145048,32.8435722 280.953708,33.0356833 C280.761597,33.2270229 280.570257,33.4183624 280.378146,33.6104735 C280.282477,33.7061433 280.091137,33.8974829 279.995467,34.089594 C279.899797,34.2809336 279.803356,34.4722731 279.803356,34.6643842 C279.803356,34.8557238 279.899797,35.0470634 279.995467,35.2391745 C280.091137,35.3348442 280.186807,35.5261838 280.282477,35.6218536 L280.953708,36.1966438 C281.432057,36.5800945 281.815508,36.9635452 282.103289,37.3462243 C282.390298,37.8253448 282.581638,38.400135 282.581638,39.0713666 C282.581638,40.1245057 282.103289,40.9870769 281.240718,41.7539782 C280.282477,42.5208795 278.941557,43 277.312084,43 C275.874723,43 274.724371,42.7122191 274.053911,42.0417591 C273.287781,41.4669688 273,40.7965088 273,40.0296075 C273,39.6461568 273.09567,39.1678079 273.383451,38.6886874 C273.57479,38.209567 274.053911,37.8261163 274.628701,37.4434372 C275.299161,37.0599865 276.066062,36.7722056 276.736522,36.6765358 C277.502652,36.580866 278.077442,36.4851963 278.556563,36.4851963 C278.365223,36.2930852 278.269553,36.1017456 278.173112,35.8147362 C278.077442,35.6226251 277.981773,35.3356158 277.981773,35.0478349 C277.981773,34.8564953 277.981773,34.6651558 278.077442,34.5687144 C278.077442,34.4730447 278.173112,34.2817051 278.173112,34.1860353 L277.502652,34.1860353 C276.353072,34.1860353 275.491272,33.8025846 274.91571,33.1321246 C274.340149,32.4616646 273.957469,31.790433 273.957469,30.9286334 C273.957469,29.8747227 274.43659,28.9164818 275.298389,28.1495805 C275.87318,27.67046 276.54364,27.3826791 277.11843,27.1913396 C277.789661,27.0956698 278.364452,27 278.939242,27 L283.059215,27 L281.718295,27.7661298 L280.474588,27.8617996 M281.336387,39.9347092 C281.336387,39.359919 281.145048,38.9764683 280.857267,38.4981194 C280.474588,38.1146687 279.899797,37.6355483 279.132896,37.1564278 L278.653776,37.1564278 L277.791976,37.1564278 C277.312856,37.2520976 276.929405,37.3477674 276.450285,37.4442087 C276.354615,37.4442087 276.163275,37.5398785 275.971164,37.6355483 C275.779824,37.7312181 275.588485,37.8268878 275.396374,38.0189989 C275.205034,38.2103385 275.013695,38.4016781 274.918025,38.689459 C274.725914,38.9764683 274.725914,39.2642492 274.725914,39.6476999 C274.725914,40.4138297 275.013695,40.9886199 275.684155,41.4677404 C276.354615,41.9468608 277.217186,42.2338702 278.271868,42.2338702 C279.229337,42.2338702 279.996239,42.0425306 280.571029,41.5634102 C281.049378,41.0850612 281.336387,40.6059408 281.336387,39.9347092 M278.366766,33.8025846 C277.983316,33.8025846 277.599865,33.7069148 277.120745,33.4183624 C276.738065,33.1313531 276.450285,32.8435722 276.258945,32.460893 C275.779824,31.5983219 275.588485,30.8321921 275.588485,30.0652908 C275.588485,29.4905005 275.779824,29.0113801 276.067605,28.5330312 C276.450285,28.1495805 276.929405,27.8617996 277.504195,27.8617996 C277.983316,27.8617996 278.366766,28.0539107 278.653776,28.2452503 C278.941557,28.4365898 279.228566,28.8200405 279.420677,29.2034912 C279.899797,30.0660623 280.091137,30.8329636 280.091137,31.6947632 L280.091137,32.3659948 C279.995467,32.6530041 279.899797,32.940785 279.707686,33.2277944 C279.420677,33.6112451 278.941557,33.8025846 278.366766,33.8025846 Z M288.714534,29.3948307 L288.714534,30.5451828 L286.511814,30.5451828 L286.511814,32.6522326 L285.457903,32.6522326 L285.457903,30.4487414 L283.254412,30.4487414 L283.254412,29.3948307 L285.457903,29.3948307 L285.457903,27.1913396 L286.511814,27.1913396 L286.511814,29.3948307 L288.714534,29.3948307 Z" id="Fill-2-Copy" fill="#627387"></path>
    </g>
</svg>