<?xml version="1.0" encoding="UTF-8"?>
<svg width="63px" height="67px" viewBox="0 0 63 67" version="1.1" xmlns="http://www.w3.org/2000/svg" xmlns:xlink="http://www.w3.org/1999/xlink">
    <!-- Generator: Sketch 48.2 (47327) - http://www.bohemiancoding.com/sketch -->
    <title>Logo Copy 2@3x</title>
    <desc>Created with Sketch.</desc>
    <defs></defs>
    <g id="sprite" stroke="none" stroke-width="1" fill="none" fill-rule="evenodd" transform="translate(-32.000000, -204.000000)">
        <g id="Logo-Copy-2" transform="translate(31.000000, 203.000000)">
            <g id="Logo-" transform="translate(0.470646, 1.069960)">
                <path d="M18.3209364,10.3971669 C18.5584926,9.58060839 25.091621,4.67190226 29.9931308,2.14872306 C34.9951196,-0.426576886 40.6565431,4.14735362 41.6659906,8.89769283 L41.1655921,12.5835658 L36.5535415,15.0613064 L32.3267712,18.2954662 L33.1612123,21.828318 L28.3828058,24.2906896 L18.3209364,10.3971669" id="Fill-1" fill="#C2EBF2"></path>
                <path d="M55.8255383,34.588136 C36.8143876,15.5112708 6.98211915,39.9612514 21.4231409,58.6906448 L25.6292832,55.3208375 C25.6292832,55.3208375 26.5242778,46.019287 33.8153236,40.8513136 C41.1063694,35.6826719 51.184209,36.4056803 51.184209,36.4056803 L55.8255383,34.588136" id="Fill-2" fill="#C2EBF2"></path>
                <path d="M48.8798473,59.7678071 C33.7787253,70.9310041 12.5750041,67.9701442 1.04853739,53.291469 C0.655272074,52.7903079 0.745769676,52.0619537 1.25748038,51.6837441 C1.73924703,51.3275856 2.41797905,51.4131171 2.78795454,51.8842086 C13.5698123,65.6340651 33.4200621,68.4118342 47.5563199,57.9616225 C61.6919123,47.512079 64.9478297,27.6534025 55.0769368,13.2306536 C54.7382362,12.7355064 54.8593433,12.059273 55.3411099,11.7031145 C55.8528206,11.3249049 56.5714781,11.4545386 56.9314722,11.9804237 C67.4644615,27.3934669 63.9816347,48.603942 48.8798473,59.7678071" id="Fill-10" fill="#72808C"></path>
                <path d="M57.2761616,33.514983 L51.7185441,37.6238359 L51.6486747,37.6124763 C46.067102,36.7417924 40.3032032,37.9525976 35.7051265,41.2468967 C30.9786231,44.6334095 27.8990429,49.6911275 27.0486316,55.4498029 L26.980093,55.9108712 L21.4224755,60.0197241 C20.9027797,60.4039477 20.1681521,60.2669636 19.8201356,59.7217003 C13.1878591,49.3202683 15.7570595,35.4327595 25.6692086,28.1057839 C35.5806923,20.7788083 49.5492634,22.4406586 57.4691344,31.8898845 C57.8843587,32.3856999 57.7958574,33.1307594 57.2761616,33.514983 L57.2761616,33.514983 Z M51.1382948,35.2677104 L54.9658111,32.4384889 C47.6907354,24.6892015 35.6372533,23.5218302 26.9934014,29.9119686 C18.3495496,36.3014388 15.8781665,48.2063542 21.0851058,57.4845171 L24.912622,54.6546273 C25.9273929,48.6006009 29.1833103,43.2802745 34.1187568,39.6318215 C39.0535378,35.9833685 45.0802789,34.4424651 51.1382948,35.2677104 L51.1382948,35.2677104 Z" id="Fill-11" fill="#72808C"></path>
                <path d="M17.297515,41.987947 C13.9697318,42.1670286 11.4085166,45.0309973 11.5875155,48.3720715 L13.8173498,48.2517928 C13.7048932,46.1455796 15.3198762,44.3400632 17.4166258,44.2271349 L17.297515,41.987947" id="Fill-12" fill="#72808C"></path>
                <path d="M13.8093647,48.2203867 C13.776759,47.6036244 13.2524052,47.1305283 12.6382193,47.1632708 C12.0240334,47.1966816 11.5529135,47.7232349 11.5855192,48.3399971 C11.6187904,48.9567594 12.1431442,49.4298555 12.7573301,49.397113 C13.371516,49.3637023 13.8426359,48.837149 13.8093647,48.2203867" id="Fill-13" fill="#72808C"></path>
                <path d="M18.1998293,43.3023256 C16.2148708,40.6147655 12.4232875,40.050124 9.74695398,42.0427406 L11.0771357,43.8442478 C12.7639843,42.5880039 15.1548511,42.9441624 16.4058474,44.638087 L18.1998293,43.3023256" id="Fill-14" fill="#72808C"></path>
                <path d="M11.0990946,43.820192 C11.5935043,43.4526739 11.696645,42.7523847 11.330662,42.2559011 C10.9640136,41.7600857 10.2666498,41.6558442 9.7729055,42.0240306 C9.27849581,42.392217 9.17535516,43.0925061 9.54133811,43.5883215 C9.90798648,44.0841369 10.6053504,44.1883784 11.0990946,43.820192" id="Fill-15" fill="#72808C"></path>
                <path d="M13.7714356,8.24844385 L13.7714356,8.24844385 C13.26771,8.62063951 13.1599114,9.3322883 13.5312177,9.83879514 L26.3333013,28.0576724 C26.6793215,28.5301003 27.3334329,28.7098501 27.8364931,28.4111581 C28.4140807,28.0670275 28.5578122,27.3086036 28.1692049,26.7793775 L18.0753951,12.25506 C18.0487781,12.2069485 16.3745725,9.89358876 15.3571399,8.49301047 C14.9871644,7.98383077 14.2764921,7.87491176 13.7714356,8.24844385" id="Fill-16" fill="#72808C"></path>
                <path d="M39.4381526,2.63143 C35.9579875,-0.435007854 30.7869811,-0.588697264 26.9401676,1.99929877 L18.1552459,7.88493498 C17.6428698,8.22906562 17.5057925,8.92601368 17.8484857,9.43987089 C18.1918442,9.9543963 18.885881,10.0927168 19.3975917,9.74791792 L28.224435,3.8348849 C31.144979,1.87033331 35.0603311,1.90842155 37.7739283,4.15295516 C41.1150199,6.91735991 41.4690253,11.6616852 39.1353849,14.8838171 C38.8618958,15.2620267 38.7913609,15.76987 39.0362368,16.1667896 C39.4754163,16.880443 39.9445399,16.7835519 40.4010205,16.1614438 C40.5074882,16.0177777 41.0411579,15.959643 41.1482911,15.8173132 C43.7487663,12.3519511 43.3734675,6.09879674 39.4381526,2.63143" id="Fill-17" fill="#72808C"></path>
                <path d="M15.8621964,12.2203128 L12.1112038,14.9934043 C11.713946,15.2867506 11.1549902,15.2018874 10.8622038,14.8029631 C10.5700829,14.4040388 10.6545917,13.8420702 11.0518496,13.5487239 L14.8035075,10.7756323 C15.2007654,10.482286 15.7597211,10.5671493 16.0525075,10.9660736 C16.3446284,11.3649978 16.2594542,11.9269665 15.8621964,12.2203128" id="Fill-18" fill="#72808C"></path>
                <path d="M20.3637867,18.3605389 L16.6127941,21.1336304 C16.2155363,21.4276449 15.6559151,21.3421134 15.3637941,20.9431892 C15.0710078,20.5442649 15.156182,19.9829645 15.5534398,19.6889499 L19.3044324,16.9158584 C19.7016902,16.6225121 20.2613114,16.7080436 20.5534324,17.1069678 C20.8462187,17.5058921 20.7610445,18.0671925 20.3637867,18.3605389" id="Fill-19" fill="#72808C"></path>
                <path d="M17.9809049,15.1103419 L14.2299124,17.8827652 C13.8319891,18.1767798 13.2730334,18.0912483 12.9809124,17.692324 C12.6881261,17.2933998 12.7733003,16.7320993 13.1705581,16.4380848 L16.9215507,13.6649932 C17.3188085,13.3716469 17.8784297,13.4565102 18.1705507,13.8561027 C18.463337,14.2550269 18.3781628,14.8163274 17.9809049,15.1103419" id="Fill-20" fill="#72808C"></path>
                <path d="M28.0228117,47.9150125 C27.8857344,48.0165812 27.7193785,48.0793934 27.5370525,48.0880802 L17.2622475,48.5879048 C16.7698341,48.6119606 16.3506173,48.2297417 16.326662,47.7352627 C16.3027068,47.2407838 16.6819982,46.8198084 17.1757425,46.7957527 L27.4505474,46.2965962 C27.9429608,46.2725405 28.3621777,46.6540911 28.3861329,47.1492383 C28.4007722,47.4606264 28.2557099,47.7432813 28.0228117,47.9150125" id="Fill-21" fill="#72808C"></path>
                <path d="M44.9525175,36.7825535 C44.7861616,36.9048368 44.5772187,36.97099 44.3549672,36.9542847 C43.8632192,36.9161964 43.49524,36.4851979 43.5325037,35.9913871 L44.3256885,25.5612218 C44.3636177,25.0674111 44.7928159,24.6972201 45.2845639,24.7353083 C45.7763119,24.7733966 46.1449565,25.2037269 46.1076928,25.6982059 L45.3138425,36.1283711 C45.2932144,36.3989982 45.1548063,36.6328733 44.9525175,36.7825535" id="Fill-22" fill="#72808C"></path>
                <path d="M32.1717275,26.2214181 C31.0604702,24.8502413 30.6159672,23.5124752 30.8521926,22.2435352 C31.2787291,19.9468809 33.7793908,18.5122236 35.9859352,17.2479612 C37.2841766,16.5029016 39.1247381,15.1343977 39.4301675,14.4461364 L41.6733103,15.0268151 C41.1017115,16.3151333 38.6915474,18.0037121 36.9754201,18.9879926 C35.1455053,20.0370899 33.0713801,21.2271805 32.8145266,22.6110534 C32.6907578,23.2739225 32.9961873,24.0630842 33.7195027,24.9558192 L32.1717275,26.2214181" id="Fill-23" fill="#72808C"></path>
                <path d="M24.4794313,13.7705712 C24.020289,13.7705712 23.6476519,13.3963709 23.6476519,12.9353027 C23.6476519,10.8765328 25.3158687,9.20131819 27.3660386,9.20131819 C28.1106476,9.20131819 28.8306359,9.42182909 29.4461526,9.83946335 C29.8267749,10.0973943 29.9265884,10.6172654 29.6697349,10.9994843 C29.412216,11.381035 28.8951819,11.4812672 28.5145597,11.2240045 C28.1751937,10.9934704 27.7779358,10.8718553 27.3660386,10.8718553 C26.2328223,10.8718553 25.3112107,11.7966646 25.3112107,12.9353027 C25.3112107,13.3963709 24.939239,13.7705712 24.4794313,13.7705712" id="Fill-24" fill="#72808C"></path>
            </g>
        </g>
    </g>
</svg>