<?xml version="1.0" encoding="UTF-8"?>
<svg width="16px" height="13px" viewBox="0 0 16 13" version="1.1" xmlns="http://www.w3.org/2000/svg" xmlns:xlink="http://www.w3.org/1999/xlink">
    <!-- Generator: Sketch 48.2 (47327) - http://www.bohemiancoding.com/sketch -->
    <title>Fill 1 Copy@3x</title>
    <desc>Created with Sketch.</desc>
    <defs></defs>
    <g id="sprite" stroke="none" stroke-width="1" fill="none" fill-rule="evenodd" transform="translate(-246.000000, -27.000000)">
        <path d="M262.059548,28.6388551 C261.513263,28.8570172 260.857897,29.0751793 260.202531,29.1851401 C260.857897,28.7479361 261.403302,28.09257 261.622344,27.3281229 C260.966978,27.6553661 260.311612,27.983489 259.546285,28.09257 C258.891799,27.437204 258.127351,27 257.143862,27 C255.286845,27 253.866152,28.529774 253.866152,30.2777101 C253.866152,30.4967519 253.866152,30.8239951 253.975233,31.0421573 C251.244688,30.9330762 248.840506,29.622344 247.201651,27.546285 C246.873528,27.983489 246.765327,28.6388551 246.765327,29.1851401 C246.765327,30.3859115 247.311612,31.3694005 248.294221,31.9156855 C247.747936,31.9156855 247.201651,31.6975233 246.765327,31.4784815 C246.765327,33.1173366 247.857017,34.4289484 249.386791,34.7561916 C249.058668,34.8661524 248.840506,34.8661524 248.512383,34.8661524 C248.294221,34.8661524 248.076059,34.8661524 247.857017,34.7561916 C248.294221,36.0669238 249.494993,37.0504128 250.916565,37.0504128 C249.823995,37.923941 248.295101,38.470226 246.765327,38.470226 L246,38.470226 C247.419813,39.453715 249.168629,40 251.025646,40 C257.034781,40 260.421573,35.0834348 260.421573,30.6040736 L260.421573,30.1668697 C261.076059,29.9504669 261.622344,29.2942211 262.059548,28.6388551" id="Fill-1-Copy" fill="#627387"></path>
    </g>
</svg>